<svg width="32" height="11" viewBox="0 0 32 11" fill="none" xmlns="http://www.w3.org/2000/svg">
<g id="snap">
<path id="Path" d="M3.29277 7.41711C2.86804 7.41711 2.45896 7.36794 2.06553 7.26958C1.67209 7.17122 1.32001 7.02592 1.00929 6.83367C0.698568 6.64143 0.452672 6.40112 0.271603 6.11275C0.0905344 5.82438 0 5.48795 0 5.10346C0 5.08557 0 5.06434 0 5.03975C0 5.01516 0 4.99616 0 4.98275H2.06553C2.06553 4.99616 2.06553 5.01069 2.06553 5.02634C2.06553 5.04198 2.06553 5.05875 2.06553 5.07663C2.06553 5.33594 2.18065 5.52595 2.4109 5.64666C2.64115 5.76738 2.95299 5.82773 3.34642 5.82773C3.55208 5.82773 3.74991 5.8065 3.93992 5.76402C4.12993 5.72155 4.28641 5.65225 4.40936 5.55613C4.53231 5.46001 4.59378 5.33818 4.59378 5.19064C4.59378 4.95369 4.46301 4.78603 4.20147 4.68767C3.93992 4.58931 3.52078 4.49095 2.94404 4.3926C2.61767 4.33895 2.28683 4.26294 1.95152 4.16458C1.61621 4.06622 1.30772 3.93545 1.02606 3.77227C0.744394 3.60908 0.518617 3.40119 0.348725 3.14859C0.178833 2.89598 0.0938875 2.58861 0.0938875 2.22648C0.0938875 1.74363 0.240307 1.33678 0.533147 1.00594C0.825987 0.675096 1.21607 0.424729 1.70339 0.254838C2.19071 0.0849459 2.72721 0 3.31289 0C3.87174 0 4.3926 0.0927698 4.87545 0.278309C5.3583 0.463849 5.74949 0.729864 6.04904 1.07635C6.34859 1.42284 6.49836 1.83975 6.49836 2.32707C6.49836 2.33601 6.49836 2.34942 6.49836 2.36731C6.49836 2.38519 6.49836 2.40307 6.49836 2.42096H4.45295C4.45295 2.40307 4.45295 2.38743 4.45295 2.37401C4.45295 2.3606 4.45295 2.34942 4.45295 2.34048C4.45295 2.16165 4.39595 2.01635 4.28194 1.90458C4.16794 1.7928 4.02375 1.70898 3.84939 1.65309C3.67503 1.59721 3.49396 1.56926 3.30618 1.56926C3.13629 1.56926 2.96081 1.58826 2.77974 1.62627C2.59867 1.66427 2.44555 1.72686 2.32036 1.81404C2.19518 1.90122 2.13259 2.02305 2.13259 2.17953C2.13259 2.33154 2.19965 2.45561 2.33378 2.55173C2.4679 2.64785 2.65568 2.72609 2.8971 2.78645C3.13853 2.8468 3.41795 2.90381 3.73538 2.95746C4.03493 3.00664 4.35124 3.07482 4.68432 3.162C5.01739 3.24918 5.33035 3.37213 5.62319 3.53084C5.91603 3.68956 6.15299 3.89745 6.33406 4.15452C6.51512 4.4116 6.60566 4.73685 6.60566 5.13028C6.60566 5.53713 6.51177 5.88585 6.324 6.17646C6.13622 6.46706 5.8825 6.7029 5.56284 6.88397C5.24317 7.06504 4.88774 7.19916 4.49654 7.28634C4.10534 7.37352 3.70409 7.41711 3.29277 7.41711Z" fill="#151515"/>
<path id="Shape" fill-rule="evenodd" clip-rule="evenodd" d="M12.73 4.23165V7.25616H14.8022V4.42613V3.56102V2.79651C14.8022 2.23765 14.7094 1.74921 14.5239 1.33119C14.3383 0.913168 14.0567 0.586797 13.6789 0.352078C13.3011 0.117359 12.8194 0 12.2337 0C11.6748 0 11.1663 0.13189 10.708 0.395669C10.3424 0.606115 10.0373 0.880589 9.79262 1.21909V0.134127H7.71368V7.25617H9.79262V3.52547C9.79287 3.18205 9.85546 2.8787 9.9804 2.61544C10.1056 2.35166 10.2855 2.146 10.5203 1.99846C10.755 1.85093 11.0333 1.77716 11.3552 1.77716C11.7263 1.77716 12.0102 1.85093 12.2069 1.99846C12.4036 2.146 12.5399 2.3416 12.616 2.58526C12.692 2.82892 12.73 3.09829 12.73 3.39336V3.76891V4.23165ZM9.79262 3.52547C9.79262 3.52614 9.79262 3.52682 9.79262 3.52749L9.21588 3.1117C9.21588 2.49473 9.35001 1.95375 9.61826 1.48879C9.6725 1.39478 9.73062 1.30488 9.79262 1.21909V3.52547Z" fill="#151515"/>
<path id="Shape_2" fill-rule="evenodd" clip-rule="evenodd" d="M17.2079 7.15557C17.6125 7.32099 18.0741 7.4037 18.5927 7.4037C19.0353 7.4037 19.4478 7.3467 19.83 7.23269C20.2123 7.11869 20.5431 6.9555 20.8225 6.74314C20.9212 6.66817 21.0102 6.58805 21.0896 6.50278C21.1082 6.57531 21.1298 6.64761 21.1545 6.71966C21.1992 6.84932 21.254 6.96333 21.3188 7.06168C21.3836 7.16004 21.4317 7.22487 21.463 7.25616H23.5084C23.4637 7.21593 23.4078 7.14439 23.3407 7.04156C23.2737 6.93874 23.2178 6.80908 23.1731 6.6526C23.1328 6.51401 23.1071 6.36088 23.096 6.19322C23.0848 6.02557 23.0792 5.85009 23.0792 5.66678V3.14523V2.86692V2.58861C23.0792 2.00293 22.9171 1.52008 22.593 1.14006C22.2689 0.760042 21.8408 0.475026 21.3087 0.285016C20.7767 0.0950052 20.1977 0 19.5718 0C18.9012 0 18.2999 0.101711 17.7678 0.305134C17.2358 0.508557 16.8144 0.806986 16.5037 1.20042C16.193 1.59385 16.0376 2.0767 16.0376 2.64897H18.083C18.083 2.29577 18.2093 2.03311 18.4619 1.86098C18.7145 1.68886 19.08 1.60279 19.5584 1.60279C20.01 1.60279 20.362 1.6788 20.6146 1.83081C20.8672 1.98282 20.9935 2.19071 20.9935 2.45449V2.46455V2.4679C20.9935 2.62438 20.8449 2.73392 20.5476 2.79651C20.2503 2.8591 19.7104 2.9284 18.928 3.0044C18.3915 3.05805 17.8941 3.1687 17.4359 3.33636C16.9776 3.50402 16.6099 3.74656 16.3327 4.06399C16.0555 4.38142 15.9169 4.79273 15.9169 5.29794C15.9169 5.74502 16.0309 6.12504 16.2589 6.438C16.4869 6.75096 16.8033 6.99015 17.2079 7.15557ZM20.0647 5.67014C19.7808 5.78862 19.4757 5.84786 19.1493 5.84786C18.7693 5.84786 18.4832 5.78638 18.2909 5.66343C18.0987 5.54049 18.0026 5.35606 18.0026 5.11017C18.0026 4.85086 18.1154 4.66644 18.3412 4.5569C18.567 4.44737 18.9079 4.37024 19.3639 4.32554C19.7484 4.2853 20.134 4.23053 20.5208 4.16123C20.6993 4.12924 20.8681 4.0932 21.0271 4.0531V4.11094C21.0271 4.52225 20.9377 4.85533 20.7588 5.11017C20.58 5.36501 20.3486 5.55166 20.0647 5.67014ZM21.0271 4.0531C21.2125 4.00636 21.3846 3.9541 21.5435 3.89634L21.0271 3.39337V4.0531Z" fill="#151515"/>
<path id="Shape_3" fill-rule="evenodd" clip-rule="evenodd" d="M27.1514 6.96444C27.6208 7.26622 28.1372 7.41711 28.7005 7.41711C29.2907 7.41711 29.8361 7.27517 30.3368 6.99127C30.8376 6.70737 31.24 6.28599 31.544 5.72714C31.848 5.16828 32 4.47978 32 3.66161C32 2.87922 31.8446 2.2153 31.5339 1.66986C31.2232 1.12442 30.8175 0.709745 30.3167 0.425847C29.816 0.141949 29.2773 0 28.7005 0C28.1372 0 27.6208 0.143067 27.1514 0.4292C26.9096 0.576541 26.6928 0.751445 26.5009 0.953911V0.134127H24.4152V10.1868H26.5009V6.41467C26.6928 6.62579 26.9096 6.80904 27.1514 6.96444ZM26.5009 3.88963V3.92986V3.9701C26.5009 4.30094 26.5813 4.59043 26.7423 4.83856C26.9032 5.08669 27.1111 5.27782 27.366 5.41195C27.6208 5.54607 27.8868 5.61313 28.164 5.61313C28.62 5.61313 29.0168 5.45554 29.3544 5.14034C29.6919 4.82515 29.8607 4.33224 29.8607 3.66161C29.8607 2.99099 29.693 2.50255 29.3577 2.1963C29.0224 1.89005 28.6245 1.73692 28.164 1.73692C27.8868 1.73692 27.6208 1.80286 27.366 1.93475C27.1111 2.06664 26.9032 2.2533 26.7423 2.49473C26.5813 2.73615 26.5009 3.02452 26.5009 3.35983L26.5009 0.953911C26.3201 1.14463 26.1613 1.35981 26.0247 1.59944C25.7431 2.09347 25.6022 2.66238 25.6022 3.30618L26.5009 3.35983V3.88963ZM26.5009 3.88963L25.6022 3.90975V3.96675V4.01705C25.6022 4.65637 25.7431 5.23199 26.0247 5.74391C26.1613 5.99221 26.3201 6.2158 26.5009 6.41467L26.5009 3.88963Z" fill="#151515"/>
</g>
</svg>
